# xmcd
#
# Track frame offsets:
#	150
#	13175
#	29855
#	43182
#	62995
#	76422
#	92567
#	114265
#	126175
#	144165
#
# Disc length: 2065
#
# Revision: 1
# Processed by: cddbd v1.5.1PL0 Copyright (c) Steve Scherf et al.
# Submitted via: dBpowerAMP V4.0
# Normalized: r0:TDELIM( - )
#
DISCID=86080f0a
DTITLE=Various Artist - Super Star Holiday Hits
DYEAR=2004
DGENRE=Country
TTITLE0=Alan Jackson - Honky Tonk Christmas
TTITLE1=Martina McBride - The Christmas Song (Chestnuts Roasting)
TTITLE2=Kenny Chesney - Away In A Manger
TTITLE3=Lonestar - Have Yourself a Merry Little Christmas
TTITLE4=Brooks and Dunn - Winter Wonderland
TTITLE5=Alabama - Christmas in Dixie
TTITLE6=Sara Evans - O Come All Ye Faithful
TTITLE7=Tracy Byrd - Merry Christmas From Texas, Y'all!
TTITLE8=Third Day - Do You Hear What I Hear
TTITLE9=Elvis Presley - Santa Claus Is Back In Town
EXTD=
EXTT0=
EXTT1=
EXTT2=
EXTT3=
EXTT4=
EXTT5=
EXTT6=
EXTT7=
EXTT8=
EXTT9=
PLAYORDER=
